<mxfile host="app.diagrams.net" modified="2022-06-29T07:09:55.884Z" agent="5.0 (Macintosh; Intel Mac OS X 10_15_7) AppleWebKit/537.36 (KHTML, like Gecko) Chrome/103.0.0.0 Safari/537.36" etag="CUbW8x3EnKWkIEPK4TcR" version="20.0.3" type="github">
  <diagram id="h-oYbKi-i4EHjSk5L3Tw" name="Page-1">
    <mxGraphModel dx="1298" dy="834" grid="1" gridSize="10" guides="1" tooltips="1" connect="1" arrows="1" fold="1" page="1" pageScale="1" pageWidth="827" pageHeight="1169" math="0" shadow="0">
      <root>
        <mxCell id="0" />
        <mxCell id="1" parent="0" />
        <mxCell id="pG-kIVS5WW9MxkxASWYn-10" style="edgeStyle=orthogonalEdgeStyle;rounded=1;orthogonalLoop=1;jettySize=auto;html=1;exitX=0.5;exitY=1;exitDx=0;exitDy=0;entryX=0.5;entryY=0;entryDx=0;entryDy=0;" edge="1" parent="1" source="pG-kIVS5WW9MxkxASWYn-1" target="pG-kIVS5WW9MxkxASWYn-9">
          <mxGeometry relative="1" as="geometry" />
        </mxCell>
        <mxCell id="pG-kIVS5WW9MxkxASWYn-1" value="replace word&lt;br&gt;(搜索词替换）" style="rounded=0;whiteSpace=wrap;html=1;fillColor=#fff2cc;strokeColor=#d6b656;" vertex="1" parent="1">
          <mxGeometry x="170" y="20" width="120" height="60" as="geometry" />
        </mxCell>
        <mxCell id="pG-kIVS5WW9MxkxASWYn-7" style="edgeStyle=orthogonalEdgeStyle;rounded=1;orthogonalLoop=1;jettySize=auto;html=1;exitX=0.5;exitY=1;exitDx=0;exitDy=0;" edge="1" parent="1" source="pG-kIVS5WW9MxkxASWYn-2" target="pG-kIVS5WW9MxkxASWYn-5">
          <mxGeometry relative="1" as="geometry" />
        </mxCell>
        <mxCell id="pG-kIVS5WW9MxkxASWYn-2" value="ES 匹配召回" style="rounded=0;whiteSpace=wrap;html=1;" vertex="1" parent="1">
          <mxGeometry x="170" y="170" width="120" height="60" as="geometry" />
        </mxCell>
        <mxCell id="pG-kIVS5WW9MxkxASWYn-8" style="edgeStyle=orthogonalEdgeStyle;rounded=1;orthogonalLoop=1;jettySize=auto;html=1;exitX=0.5;exitY=1;exitDx=0;exitDy=0;entryX=0.6;entryY=-0.025;entryDx=0;entryDy=0;entryPerimeter=0;" edge="1" parent="1" source="pG-kIVS5WW9MxkxASWYn-4" target="pG-kIVS5WW9MxkxASWYn-5">
          <mxGeometry relative="1" as="geometry" />
        </mxCell>
        <mxCell id="pG-kIVS5WW9MxkxASWYn-4" value="DetectIntention&lt;br&gt;(意图识别）" style="rounded=0;whiteSpace=wrap;html=1;fillColor=#fff2cc;strokeColor=#d6b656;" vertex="1" parent="1">
          <mxGeometry x="340" y="170" width="120" height="60" as="geometry" />
        </mxCell>
        <mxCell id="pG-kIVS5WW9MxkxASWYn-5" value="ReRank&lt;br&gt;（搜索词重排）" style="rounded=0;whiteSpace=wrap;html=1;fillColor=#fff2cc;strokeColor=#d6b656;" vertex="1" parent="1">
          <mxGeometry x="250" y="290" width="120" height="60" as="geometry" />
        </mxCell>
        <mxCell id="pG-kIVS5WW9MxkxASWYn-11" style="edgeStyle=orthogonalEdgeStyle;rounded=1;orthogonalLoop=1;jettySize=auto;html=1;exitX=0.5;exitY=1;exitDx=0;exitDy=0;entryX=0.5;entryY=0;entryDx=0;entryDy=0;" edge="1" parent="1" source="pG-kIVS5WW9MxkxASWYn-9" target="pG-kIVS5WW9MxkxASWYn-2">
          <mxGeometry relative="1" as="geometry" />
        </mxCell>
        <mxCell id="pG-kIVS5WW9MxkxASWYn-9" value="NFC 编码" style="rounded=0;whiteSpace=wrap;html=1;fillColor=#fff2cc;strokeColor=#d6b656;" vertex="1" parent="1">
          <mxGeometry x="170" y="110" width="120" height="40" as="geometry" />
        </mxCell>
        <mxCell id="pG-kIVS5WW9MxkxASWYn-43" style="edgeStyle=orthogonalEdgeStyle;rounded=1;orthogonalLoop=1;jettySize=auto;html=1;exitX=0.5;exitY=1;exitDx=0;exitDy=0;entryX=0.5;entryY=0;entryDx=0;entryDy=0;" edge="1" parent="1" source="pG-kIVS5WW9MxkxASWYn-12" target="pG-kIVS5WW9MxkxASWYn-20">
          <mxGeometry relative="1" as="geometry" />
        </mxCell>
        <mxCell id="pG-kIVS5WW9MxkxASWYn-12" value="ES 分页召回" style="rounded=0;whiteSpace=wrap;html=1;" vertex="1" parent="1">
          <mxGeometry x="190" y="620" width="100" height="50" as="geometry" />
        </mxCell>
        <mxCell id="pG-kIVS5WW9MxkxASWYn-18" style="edgeStyle=orthogonalEdgeStyle;rounded=1;orthogonalLoop=1;jettySize=auto;html=1;exitX=0.5;exitY=1;exitDx=0;exitDy=0;entryX=0.5;entryY=0;entryDx=0;entryDy=0;" edge="1" parent="1" source="pG-kIVS5WW9MxkxASWYn-13" target="pG-kIVS5WW9MxkxASWYn-16">
          <mxGeometry relative="1" as="geometry" />
        </mxCell>
        <mxCell id="pG-kIVS5WW9MxkxASWYn-13" value="解析abtest参数&lt;br&gt;quality_score" style="rounded=0;whiteSpace=wrap;html=1;fillColor=#fff2cc;strokeColor=#d6b656;" vertex="1" parent="1">
          <mxGeometry x="190" y="470" width="100" height="50" as="geometry" />
        </mxCell>
        <mxCell id="pG-kIVS5WW9MxkxASWYn-19" style="edgeStyle=orthogonalEdgeStyle;rounded=1;orthogonalLoop=1;jettySize=auto;html=1;exitX=0.5;exitY=1;exitDx=0;exitDy=0;entryX=0.5;entryY=0;entryDx=0;entryDy=0;" edge="1" parent="1" source="pG-kIVS5WW9MxkxASWYn-16" target="pG-kIVS5WW9MxkxASWYn-12">
          <mxGeometry relative="1" as="geometry" />
        </mxCell>
        <mxCell id="pG-kIVS5WW9MxkxASWYn-16" value="构造ES DSL&amp;nbsp;" style="rounded=0;whiteSpace=wrap;html=1;" vertex="1" parent="1">
          <mxGeometry x="190" y="550" width="100" height="50" as="geometry" />
        </mxCell>
        <mxCell id="pG-kIVS5WW9MxkxASWYn-54" style="edgeStyle=orthogonalEdgeStyle;rounded=1;orthogonalLoop=1;jettySize=auto;html=1;exitX=0.5;exitY=1;exitDx=0;exitDy=0;" edge="1" parent="1" source="pG-kIVS5WW9MxkxASWYn-20" target="pG-kIVS5WW9MxkxASWYn-47">
          <mxGeometry relative="1" as="geometry" />
        </mxCell>
        <mxCell id="pG-kIVS5WW9MxkxASWYn-20" value="获取动态信息" style="rounded=0;whiteSpace=wrap;html=1;" vertex="1" parent="1">
          <mxGeometry x="190" y="690" width="100" height="50" as="geometry" />
        </mxCell>
        <mxCell id="pG-kIVS5WW9MxkxASWYn-34" style="edgeStyle=orthogonalEdgeStyle;rounded=1;orthogonalLoop=1;jettySize=auto;html=1;exitX=0;exitY=0.5;exitDx=0;exitDy=0;entryX=1;entryY=0.5;entryDx=0;entryDy=0;" edge="1" parent="1" source="pG-kIVS5WW9MxkxASWYn-24" target="pG-kIVS5WW9MxkxASWYn-26">
          <mxGeometry relative="1" as="geometry" />
        </mxCell>
        <mxCell id="pG-kIVS5WW9MxkxASWYn-24" value="cache" style="rounded=0;whiteSpace=wrap;html=1;fillColor=#fff2cc;strokeColor=#d6b656;" vertex="1" parent="1">
          <mxGeometry x="530" y="660" width="60" height="45" as="geometry" />
        </mxCell>
        <mxCell id="pG-kIVS5WW9MxkxASWYn-33" style="edgeStyle=orthogonalEdgeStyle;rounded=1;orthogonalLoop=1;jettySize=auto;html=1;exitX=0;exitY=0.5;exitDx=0;exitDy=0;entryX=1;entryY=0.5;entryDx=0;entryDy=0;" edge="1" parent="1" source="pG-kIVS5WW9MxkxASWYn-25" target="pG-kIVS5WW9MxkxASWYn-24">
          <mxGeometry relative="1" as="geometry" />
        </mxCell>
        <mxCell id="pG-kIVS5WW9MxkxASWYn-25" value="supplier service" style="rounded=0;whiteSpace=wrap;html=1;fillColor=#fff2cc;strokeColor=#d6b656;" vertex="1" parent="1">
          <mxGeometry x="610" y="660" width="90" height="45" as="geometry" />
        </mxCell>
        <mxCell id="pG-kIVS5WW9MxkxASWYn-35" style="edgeStyle=orthogonalEdgeStyle;rounded=1;orthogonalLoop=1;jettySize=auto;html=1;exitX=0;exitY=0.5;exitDx=0;exitDy=0;entryX=1;entryY=0.5;entryDx=0;entryDy=0;" edge="1" parent="1" source="pG-kIVS5WW9MxkxASWYn-26" target="pG-kIVS5WW9MxkxASWYn-31">
          <mxGeometry relative="1" as="geometry" />
        </mxCell>
        <mxCell id="pG-kIVS5WW9MxkxASWYn-26" value="adapter" style="rounded=0;whiteSpace=wrap;html=1;fillColor=#fff2cc;strokeColor=#d6b656;" vertex="1" parent="1">
          <mxGeometry x="450" y="660" width="60" height="45" as="geometry" />
        </mxCell>
        <mxCell id="pG-kIVS5WW9MxkxASWYn-36" style="edgeStyle=orthogonalEdgeStyle;rounded=1;orthogonalLoop=1;jettySize=auto;html=1;exitX=0;exitY=0.5;exitDx=0;exitDy=0;entryX=1;entryY=0.5;entryDx=0;entryDy=0;" edge="1" parent="1" source="pG-kIVS5WW9MxkxASWYn-31" target="pG-kIVS5WW9MxkxASWYn-20">
          <mxGeometry relative="1" as="geometry" />
        </mxCell>
        <mxCell id="pG-kIVS5WW9MxkxASWYn-31" value="aggregate" style="rounded=0;whiteSpace=wrap;html=1;fillColor=#fff2cc;strokeColor=#d6b656;" vertex="1" parent="1">
          <mxGeometry x="330" y="695" width="70" height="40" as="geometry" />
        </mxCell>
        <mxCell id="pG-kIVS5WW9MxkxASWYn-37" style="edgeStyle=orthogonalEdgeStyle;rounded=1;orthogonalLoop=1;jettySize=auto;html=1;exitX=0;exitY=0.5;exitDx=0;exitDy=0;entryX=1;entryY=0.5;entryDx=0;entryDy=0;" edge="1" parent="1" source="pG-kIVS5WW9MxkxASWYn-38" target="pG-kIVS5WW9MxkxASWYn-41">
          <mxGeometry relative="1" as="geometry" />
        </mxCell>
        <mxCell id="pG-kIVS5WW9MxkxASWYn-38" value="cache" style="rounded=0;whiteSpace=wrap;html=1;dashed=1;" vertex="1" parent="1">
          <mxGeometry x="530" y="725" width="60" height="45" as="geometry" />
        </mxCell>
        <mxCell id="pG-kIVS5WW9MxkxASWYn-39" style="edgeStyle=orthogonalEdgeStyle;rounded=1;orthogonalLoop=1;jettySize=auto;html=1;exitX=0;exitY=0.5;exitDx=0;exitDy=0;entryX=1;entryY=0.5;entryDx=0;entryDy=0;" edge="1" parent="1" source="pG-kIVS5WW9MxkxASWYn-40" target="pG-kIVS5WW9MxkxASWYn-38">
          <mxGeometry relative="1" as="geometry" />
        </mxCell>
        <mxCell id="pG-kIVS5WW9MxkxASWYn-40" value="supplier service" style="rounded=0;whiteSpace=wrap;html=1;dashed=1;" vertex="1" parent="1">
          <mxGeometry x="610" y="725" width="90" height="45" as="geometry" />
        </mxCell>
        <mxCell id="pG-kIVS5WW9MxkxASWYn-42" style="edgeStyle=orthogonalEdgeStyle;rounded=1;orthogonalLoop=1;jettySize=auto;html=1;exitX=0;exitY=0.5;exitDx=0;exitDy=0;entryX=1;entryY=0.75;entryDx=0;entryDy=0;" edge="1" parent="1" source="pG-kIVS5WW9MxkxASWYn-41" target="pG-kIVS5WW9MxkxASWYn-31">
          <mxGeometry relative="1" as="geometry" />
        </mxCell>
        <mxCell id="pG-kIVS5WW9MxkxASWYn-41" value="adapter" style="rounded=0;whiteSpace=wrap;html=1;dashed=1;" vertex="1" parent="1">
          <mxGeometry x="450" y="725" width="60" height="45" as="geometry" />
        </mxCell>
        <mxCell id="pG-kIVS5WW9MxkxASWYn-64" style="edgeStyle=orthogonalEdgeStyle;rounded=1;orthogonalLoop=1;jettySize=auto;html=1;exitX=0.5;exitY=1;exitDx=0;exitDy=0;" edge="1" parent="1" source="pG-kIVS5WW9MxkxASWYn-47" target="pG-kIVS5WW9MxkxASWYn-55">
          <mxGeometry relative="1" as="geometry" />
        </mxCell>
        <mxCell id="pG-kIVS5WW9MxkxASWYn-47" value="过滤" style="rounded=0;whiteSpace=wrap;html=1;" vertex="1" parent="1">
          <mxGeometry x="190" y="800" width="100" height="60" as="geometry" />
        </mxCell>
        <mxCell id="pG-kIVS5WW9MxkxASWYn-51" style="edgeStyle=orthogonalEdgeStyle;rounded=1;orthogonalLoop=1;jettySize=auto;html=1;exitX=0;exitY=0.5;exitDx=0;exitDy=0;entryX=1;entryY=0.5;entryDx=0;entryDy=0;" edge="1" parent="1" source="pG-kIVS5WW9MxkxASWYn-48" target="pG-kIVS5WW9MxkxASWYn-47">
          <mxGeometry relative="1" as="geometry" />
        </mxCell>
        <mxCell id="pG-kIVS5WW9MxkxASWYn-48" value="price filter" style="rounded=0;whiteSpace=wrap;html=1;" vertex="1" parent="1">
          <mxGeometry x="354" y="795" width="96" height="40" as="geometry" />
        </mxCell>
        <mxCell id="pG-kIVS5WW9MxkxASWYn-52" style="edgeStyle=orthogonalEdgeStyle;rounded=1;orthogonalLoop=1;jettySize=auto;html=1;exitX=0;exitY=0.5;exitDx=0;exitDy=0;entryX=1;entryY=0.75;entryDx=0;entryDy=0;" edge="1" parent="1" source="pG-kIVS5WW9MxkxASWYn-49" target="pG-kIVS5WW9MxkxASWYn-47">
          <mxGeometry relative="1" as="geometry" />
        </mxCell>
        <mxCell id="pG-kIVS5WW9MxkxASWYn-49" value="benefit filter" style="rounded=0;whiteSpace=wrap;html=1;" vertex="1" parent="1">
          <mxGeometry x="354" y="845" width="96" height="40" as="geometry" />
        </mxCell>
        <mxCell id="pG-kIVS5WW9MxkxASWYn-66" style="edgeStyle=orthogonalEdgeStyle;rounded=1;orthogonalLoop=1;jettySize=auto;html=1;exitX=0.5;exitY=1;exitDx=0;exitDy=0;entryX=0.5;entryY=0;entryDx=0;entryDy=0;" edge="1" parent="1" source="pG-kIVS5WW9MxkxASWYn-55" target="pG-kIVS5WW9MxkxASWYn-65">
          <mxGeometry relative="1" as="geometry" />
        </mxCell>
        <mxCell id="pG-kIVS5WW9MxkxASWYn-55" value="Markup" style="rounded=0;whiteSpace=wrap;html=1;fillColor=#fff2cc;strokeColor=#d6b656;" vertex="1" parent="1">
          <mxGeometry x="190" y="920" width="100" height="60" as="geometry" />
        </mxCell>
        <mxCell id="pG-kIVS5WW9MxkxASWYn-62" style="edgeStyle=orthogonalEdgeStyle;rounded=1;orthogonalLoop=1;jettySize=auto;html=1;exitX=0;exitY=0.5;exitDx=0;exitDy=0;entryX=1;entryY=0.5;entryDx=0;entryDy=0;" edge="1" parent="1" source="pG-kIVS5WW9MxkxASWYn-56" target="pG-kIVS5WW9MxkxASWYn-58">
          <mxGeometry relative="1" as="geometry" />
        </mxCell>
        <mxCell id="pG-kIVS5WW9MxkxASWYn-56" value="获取所有&lt;br&gt;mark rules" style="rounded=0;whiteSpace=wrap;html=1;fillColor=#fff2cc;strokeColor=#d6b656;" vertex="1" parent="1">
          <mxGeometry x="550" y="925" width="80" height="50" as="geometry" />
        </mxCell>
        <mxCell id="pG-kIVS5WW9MxkxASWYn-63" style="edgeStyle=orthogonalEdgeStyle;rounded=1;orthogonalLoop=1;jettySize=auto;html=1;exitX=0;exitY=0.5;exitDx=0;exitDy=0;entryX=1;entryY=0.5;entryDx=0;entryDy=0;" edge="1" parent="1" source="pG-kIVS5WW9MxkxASWYn-57" target="pG-kIVS5WW9MxkxASWYn-56">
          <mxGeometry relative="1" as="geometry" />
        </mxCell>
        <mxCell id="pG-kIVS5WW9MxkxASWYn-57" value="item-server" style="rounded=0;whiteSpace=wrap;html=1;" vertex="1" parent="1">
          <mxGeometry x="650" y="925" width="70" height="50" as="geometry" />
        </mxCell>
        <mxCell id="pG-kIVS5WW9MxkxASWYn-61" style="edgeStyle=orthogonalEdgeStyle;rounded=1;orthogonalLoop=1;jettySize=auto;html=1;exitX=0;exitY=0.5;exitDx=0;exitDy=0;entryX=1;entryY=0.5;entryDx=0;entryDy=0;" edge="1" parent="1" source="pG-kIVS5WW9MxkxASWYn-58" target="pG-kIVS5WW9MxkxASWYn-59">
          <mxGeometry relative="1" as="geometry" />
        </mxCell>
        <mxCell id="pG-kIVS5WW9MxkxASWYn-58" value="匹配hotel&lt;br&gt;高优规则" style="rounded=0;whiteSpace=wrap;html=1;fillColor=#fff2cc;strokeColor=#d6b656;" vertex="1" parent="1">
          <mxGeometry x="430" y="925" width="90" height="50" as="geometry" />
        </mxCell>
        <mxCell id="pG-kIVS5WW9MxkxASWYn-60" style="edgeStyle=orthogonalEdgeStyle;rounded=1;orthogonalLoop=1;jettySize=auto;html=1;exitX=0;exitY=0.5;exitDx=0;exitDy=0;" edge="1" parent="1" source="pG-kIVS5WW9MxkxASWYn-59" target="pG-kIVS5WW9MxkxASWYn-55">
          <mxGeometry relative="1" as="geometry" />
        </mxCell>
        <mxCell id="pG-kIVS5WW9MxkxASWYn-59" value="计算价格" style="rounded=0;whiteSpace=wrap;html=1;fillColor=#fff2cc;strokeColor=#d6b656;" vertex="1" parent="1">
          <mxGeometry x="330" y="925" width="70" height="50" as="geometry" />
        </mxCell>
        <mxCell id="pG-kIVS5WW9MxkxASWYn-65" value="本地Rerank" style="rounded=0;whiteSpace=wrap;html=1;" vertex="1" parent="1">
          <mxGeometry x="190" y="1020" width="100" height="50" as="geometry" />
        </mxCell>
        <mxCell id="pG-kIVS5WW9MxkxASWYn-70" style="edgeStyle=orthogonalEdgeStyle;rounded=1;orthogonalLoop=1;jettySize=auto;html=1;exitX=0;exitY=0.5;exitDx=0;exitDy=0;entryX=1;entryY=0.5;entryDx=0;entryDy=0;" edge="1" parent="1" source="pG-kIVS5WW9MxkxASWYn-69" target="pG-kIVS5WW9MxkxASWYn-65">
          <mxGeometry relative="1" as="geometry" />
        </mxCell>
        <mxCell id="pG-kIVS5WW9MxkxASWYn-69" value="Soldout&lt;br&gt;&amp;nbsp;沉底" style="rounded=0;whiteSpace=wrap;html=1;fillColor=#fff2cc;strokeColor=#d6b656;" vertex="1" parent="1">
          <mxGeometry x="330" y="1020" width="70" height="50" as="geometry" />
        </mxCell>
      </root>
    </mxGraphModel>
  </diagram>
</mxfile>
